PathFileType	4	(X/Y/Z)	/Users/itak/Documents/Research/Walk-IL/dataset/trc/00481_00167.trc
DataRate	CameraRate	NumFrames	NumMarkers	Units	OrigDataRate	OrigDataStartFrame	OrigNumFrames
100.000000	100.000000	4	53	mm	100.000000	395	632
Frame#	Time	RPSI			LPSI			L3			STRN			T10			C7			CLAV			RBAK			LBAK			LSHO			LUPA			LAEL			LAOL			LWTS			LWPS			LFRA			LIFD			LHPS			LHTS			RSHO			RUPA			RAEL			RAOL			RWTS			RWPS			RFRA			RIFD			RHTS			RHPS			RBHD			LFHD			RFHD			LBHD			LHIP			RHIP			RASI			LASI			LKNE			LTHI			LANK			LTIP			LTOE			LMT1			LMT5			LHEE			RKNE			RTHI			RANK			RTIP			RTOE			RMT1			RMT5			RHEE			
		X1	Y1	Z1	X2	Y2	Z2	X3	Y3	Z3	X4	Y4	Z4	X5	Y5	Z5	X6	Y6	Z6	X7	Y7	Z7	X8	Y8	Z8	X9	Y9	Z9	X10	Y10	Z10	X11	Y11	Z11	X12	Y12	Z12	X13	Y13	Z13	X14	Y14	Z14	X15	Y15	Z15	X16	Y16	Z16	X17	Y17	Z17	X18	Y18	Z18	X19	Y19	Z19	X20	Y20	Z20	X21	Y21	Z21	X22	Y22	Z22	X23	Y23	Z23	X24	Y24	Z24	X25	Y25	Z25	X26	Y26	Z26	X27	Y27	Z27	X28	Y28	Z28	X29	Y29	Z29	X30	Y30	Z30	X31	Y31	Z31	X32	Y32	Z32	X33	Y33	Z33	X34	Y34	Z34	X35	Y35	Z35	X36	Y36	Z36	X37	Y37	Z37	X38	Y38	Z38	X39	Y39	Z39	X40	Y40	Z40	X41	Y41	Z41	X42	Y42	Z42	X43	Y43	Z43	X44	Y44	Z44	X45	Y45	Z45	X46	Y46	Z46	X47	Y47	Z47	X48	Y48	Z48	X49	Y49	Z49	X50	Y50	Z50	X51	Y51	Z51	X52	Y52	Z52	X53	Y53	Z53	

396	3.95	605.1179809570312	924.0919189453125	-335.2848510742188	588.49755859375	917.4067993164062	-192.3009338378906	576.6046752929688	1037.598022460938	-261.7481384277344	284.9075622558594	1215.959106445312	-307.776123046875	568.5142211914062	1161.098876953125	-246.1283416748047	489.9850158691406	1425.388427734375	-270.8134765625	314.853515625	1330.798217773438	-301.0852966308594	580.1483764648438	1306.079956054688	-341.2992858886719	499.1448974609375	1378.328247070312	-166.7510223388672	380.1658935546875	1393.634765625	-115.2365951538086	368.0415649414062	1281.117309570312	-11.42678451538086	333.2196044921875	1067.77490234375	27.59406089782715	427.4090270996094	1044.517700195312	-8.329705238342285	225.0983123779297	896.2353515625	-64.37991333007812	259.6447448730469	863.3716430664062	-7.713131904602051	293.4413452148438	985.7979736328125	18.04080963134766	197.6530151367188	736.1678466796875	-78.30260467529297	244.2187347412109	789.9228515625	-19.72912788391113	198.2469329833984	811.7506713867188	-72.46141052246094	473.9724731445312	1395.859252929688	-436.7522277832031	521.0258178710938	1344.035888671875	-503.2498779296875	569.2594604492188	1076.85791015625	-596.1843872070312	595.0870361328125	1044.890991210938	-541.9983520507812	435.3601379394531	893.4894409179688	-648.89794921875	519.009765625	874.0879516601562	-669.6759643554688	564.8404541015625	1021.7451171875	-619.1114501953125	422.44091796875	744.7677612304688	-697.2659301757812	417.8128662109375	804.982421875	-689.188232421875	496.6072998046875	795.7695922851562	-696.61865234375	353.679443359375	1618.074951171875	-381.1199035644531	230.2406005859375	1587.325561523438	-217.5719604492188	221.1962890625	1597.447998046875	-347.9834594726562	380.2808227539062	1613.026489257812	-205.1883544921875	434.4880676269531	809.7470092773438	-100.6946487426758	475.3675842285156	862.27734375	-498.9518737792969	384.1466674804688	911.7474975585938	-429.4677124023438	347.8049011230469	860.9053955078125	-182.9946899414062	433.512939453125	395.6970520019531	-197.3910217285156	396.2378540039062	546.1994018554688	-165.4487457275391	661.2362060546875	46.00193023681641	-122.532958984375	498.1753845214844	249.1193389892578	-175.6880493164062	512.7109985351562	38.44264221191406	-310.4353332519531	589.6788330078125	42.06465148925781	-287.7506408691406	526.7308959960938	46.37743377685547	-194.1683502197266	733.6705932617188	57.50176239013672	-151.8490600585938	220.5335845947266	550.061279296875	-515.2171630859375	361.1114807128906	772.0452880859375	-520.0022583007812	34.89027404785156	151.0181732177734	-588.3491821289062	147.0797576904297	432.0219116210938	-546.35693359375	-124.9689102172852	249.7312774658203	-483.5243835449219	-66.64890289306641	211.9308319091797	-465.0220642089844	-84.22505950927734	207.4874572753906	-567.9542236328125	100.1701889038086	114.1008911132812	-564.4454956054688	
397	3.96	600.8980712890625	922.987548828125	-339.2185974121094	585.4967651367188	916.5265502929688	-196.2159576416016	573.5117797851562	1036.376953125	-265.4602966308594	282.7727966308594	1216.001098632812	-309.8522644042969	566.3668823242188	1159.9443359375	-249.9195404052734	488.9225463867188	1424.59814453125	-274.6559448242188	313.2215576171875	1330.6611328125	-303.4657897949219	578.1329956054688	1304.695190429688	-345.562744140625	498.6279296875	1377.758544921875	-170.5994720458984	380.0910949707031	1393.51416015625	-118.1777725219727	368.6208801269531	1280.9970703125	-14.17669582366943	334.0604858398438	1067.417236328125	24.73030090332031	427.8291931152344	1044.208740234375	-12.13663768768311	224.9525756835938	896.23974609375	-66.67023468017578	260.0774536132812	862.9732666015625	-10.69224548339844	294.1316833496094	985.4912109375	15.29097747802734	197.2133636474609	736.4783325195312	-81.80028533935547	244.7345123291016	789.5032348632812	-23.33094787597656	198.2454376220703	811.7260131835938	-75.33472442626953	471.7425231933594	1394.740356445312	-440.4030151367188	517.9068603515625	1342.479736328125	-507.188720703125	562.4638671875	1074.65576171875	-600.486572265625	588.7739868164062	1042.319213867188	-546.6803588867188	424.0004272460938	894.0848999023438	-650.5526123046875	506.7017822265625	872.7254638671875	-672.9483032226562	556.6312866210938	1019.647155761719	-623.2340698242188	406.5032043457031	745.7246704101562	-698.140625	403.4332580566406	805.9542846679688	-690.0465698242188	481.8985290527344	794.8147583007812	-699.0983276367188	352.1575622558594	1617.427124023438	-384.7801513671875	229.5089111328125	1587.204956054688	-220.3721771240234	219.7488403320312	1596.821166992188	-350.8176574707031	379.5961608886719	1612.979736328125	-208.89794921875	432.8968505859375	809.4996948242188	-102.9150009155273	469.8195190429688	862.1251831054688	-501.9712524414062	379.3456726074219	911.6226196289062	-431.5677795410156	344.9695129394531	860.379150390625	-184.7231292724609	434.587890625	395.3232116699219	-197.2442626953125	396.5308837890625	545.7083740234375	-165.8210906982422	666.1314697265625	47.17852020263672	-126.2140045166016	500.6788635253906	249.2308959960938	-176.2539825439453	512.2705078125	38.52938079833984	-309.4092712402344	589.9395141601562	41.88832473754883	-289.2814025878906	529.6057739257812	46.39287567138672	-193.8296356201172	737.6591796875	58.90610122680664	-157.6440582275391	214.5294036865234	550.2897338867188	-517.0965576171875	355.1912841796875	772.2031860351562	-522.235595703125	32.76929473876953	148.9410247802734	-590.5819702148438	141.9888153076172	431.19140625	-548.361328125	-128.1592254638672	246.4087371826172	-486.8940124511719	-69.88664245605469	208.9987945556641	-467.8738098144531	-86.57263946533203	204.6506042480469	-571.0458984375	98.41935729980469	112.6158599853516	-566.5853271484375	
398	3.97	596.4276123046875	921.8800659179688	-343.37890625	582.4134521484375	915.736083984375	-200.3577880859375	570.1942138671875	1035.103637695312	-269.3791809082031	280.48095703125	1215.9482421875	-311.8828430175781	564.1005859375	1158.755493164062	-253.8739471435547	487.6776123046875	1423.730224609375	-278.57177734375	311.4129638671875	1330.401245117188	-305.8248596191406	575.9366455078125	1303.2255859375	-349.8793334960938	497.9798278808594	1377.13232421875	-174.510986328125	379.9063720703125	1393.32177734375	-121.1501693725586	369.1095275878906	1280.7802734375	-16.97414970397949	334.7159118652344	1066.974365234375	21.77753448486328	428.0513305664062	1043.804565429688	-16.00253486633301	224.6470794677734	896.2505493164062	-69.24522399902344	260.2239074707031	862.5339965820312	-13.89389324188232	294.6201782226562	985.123779296875	12.39145374298096	196.5482177734375	736.8361206054688	-85.73433685302734	244.9074249267578	789.0541381835938	-27.21298599243164	198.0365295410156	811.73291015625	-78.54915618896484	469.2859497070312	1393.5048828125	-444.1160583496094	514.5891723632812	1340.81787109375	-511.16796875	555.5621337890625	1072.406494140625	-604.7379150390625	582.463134765625	1039.745971679688	-551.3526611328125	412.813720703125	894.5380249023438	-651.80712890625	494.4415893554688	871.3697509765625	-676.0422973632812	548.3448486328125	1017.528747558594	-627.2774047851562	390.8549499511719	746.6399536132812	-698.4521484375	389.2940063476562	806.8270874023438	-690.3714599609375	467.3239135742188	793.8983764648438	-701.2837524414062	350.5886840820312	1616.738525390625	-388.4899597167969	228.6266937255859	1587.039428710938	-223.2868957519531	218.2186126708984	1596.184204101562	-353.7485046386719	378.7691955566406	1612.846557617188	-212.641845703125	431.3923645019531	809.3296508789062	-105.1542282104492	463.8756408691406	861.7470703125	-504.9575805664062	374.2281799316406	911.218017578125	-433.6186218261719	342.1256713867188	859.8403930664062	-186.2936401367188	435.6324157714844	394.9673156738281	-197.0528717041016	396.8001403808594	545.2763671875	-166.0532379150391	670.5338745117188	48.27910995483398	-129.6376342773438	502.9388122558594	249.3633728027344	-176.6960601806641	511.8467712402344	38.61344146728516	-308.4475402832031	590.0536499023438	41.71529388427734	-290.6390991210938	532.2177124023438	46.3722038269043	-193.5570526123047	741.1553955078125	60.1674690246582	-163.0247955322266	208.6728668212891	550.0362548828125	-519.0035400390625	349.3796997070312	771.8392333984375	-524.253173828125	31.67858505249023	146.1441802978516	-593.0581665039062	137.2964019775391	429.7693786621094	-550.4190063476562	-130.5145111083984	242.0281372070312	-490.3490905761719	-72.14208984375	205.0823822021484	-470.93798828125	-88.00117492675781	200.8782958984375	-574.2894897460938	97.76586151123047	110.5625686645508	-568.9434814453125	
399	3.98	591.7206420898438	920.7713012695312	-347.7866516113281	579.2569580078125	915.0367431640625	-204.7520446777344	566.66845703125	1033.790405273438	-273.5386962890625	278.0196533203125	1215.796875	-313.8553771972656	561.712158203125	1157.535278320312	-258.0245361328125	486.2487182617188	1422.786376953125	-282.570068359375	309.4369812011719	1330.021606445312	-308.172119140625	573.5442504882812	1301.671508789062	-354.2733459472656	497.2087097167969	1376.4501953125	-178.4949798583984	379.6152954101562	1393.058227539062	-124.1614685058594	369.4920349121094	1280.475463867188	-19.82285499572754	335.1781005859375	1066.456787109375	18.72536277770996	428.0783386230469	1043.313354492188	-19.92633438110352	224.1566925048828	896.2720947265625	-72.08615875244141	260.0755310058594	862.0620727539062	-17.29099464416504	294.8993530273438	984.7040405273438	9.344941139221191	195.6860504150391	737.1952514648438	-90.03164672851562	244.7307434082031	788.5865478515625	-31.31942749023438	197.6288299560547	811.7550659179688	-82.0751953125	466.5820922851562	1392.154418945312	-447.8939819335938	511.0548706054688	1339.055297851562	-515.1942138671875	548.5700073242188	1070.108642578125	-608.9153442382812	576.1387939453125	1037.161743164062	-555.9896850585938	401.8262939453125	894.8361206054688	-652.6902465820312	482.2705688476562	870.0178833007812	-678.955322265625	540.0072631835938	1015.382751464844	-631.2247924804688	375.5384216308594	747.4672241210938	-698.2549438476562	375.4515686035156	807.5914916992188	-690.2316284179688	452.9355773925781	793.018310546875	-703.2059936523438	348.9465637207031	1615.996459960938	-392.2418518066406	227.5897369384766	1586.833984375	-226.3048400878906	216.5910491943359	1595.539672851562	-356.7622680664062	377.8025817871094	1612.624755859375	-216.4243927001953	429.9496154785156	809.2478637695312	-107.4306030273438	457.5288696289062	861.11962890625	-507.8934936523438	368.7935791015625	910.526123046875	-435.6153564453125	339.2796936035156	859.3038940429688	-187.7156066894531	436.543212890625	394.6260375976562	-196.8112182617188	396.9561767578125	544.9142456054688	-166.1862640380859	674.3223266601562	49.27959442138672	-132.677734375	504.8398742675781	249.5107727050781	-176.9804534912109	511.4635009765625	38.6966667175293	-307.5793762207031	590.0232543945312	41.54726028442383	-291.7800903320312	534.4745483398438	46.33318328857422	-193.3275299072266	744.0738525390625	61.29055023193359	-167.79931640625	202.9746856689453	549.2920532226562	-520.9319458007812	343.5803527832031	770.9979248046875	-526.0716552734375	31.53666687011719	142.7373504638672	-595.7879028320312	132.9732666015625	427.7969055175781	-552.5263671875	-132.0524291992188	236.6701965332031	-493.7599182128906	-73.41248321533203	200.2581787109375	-474.1394958496094	-88.60855865478516	196.2512054443359	-577.59228515625	98.13582611083984	108.0395050048828	-571.5673828125	
